<svg xmlns="http://www.w3.org/2000/svg" width="50" height="50" fill="none"><path fill="#1e1e1e" d="M41.032 33a3.01 3.01 0 0 0-2.8 1.846 2.93 2.93 0 0 0 .176 2.636H38V39h2.995a3.01 3.01 0 0 0 2.776-1.852 2.996 2.996 0 0 0-1.626-3.92 3 3 0 0 0-1.15-.228z"/><path fill="#1e1e1e" d="M43.873 37c.08-.311.122-.634.127-.958A3.8 3.8 0 0 0 43.837 35h-5.674A3.8 3.8 0 0 0 38 36.042c0 .325.043.648.127.958z"/><path fill="#1e1e1e" d="M41 36a3 3 0 1 0-6 0 3 3 0 0 0 6 0"/><path fill="#ebeef2" d="M17.33 11.018h15.029a6.6 6.6 0 0 1 4.696 1.965A6.75 6.75 0 0 1 39 17.73V36H15.739a1.73 1.73 0 0 1-1.23-.515A1.77 1.77 0 0 1 14 34.243v-19.87a3.4 3.4 0 0 1 .978-2.385 3.33 3.33 0 0 1 2.36-.988z"/><path fill="#1e1e1e" d="M31.524 18h9.074a5.43 5.43 0 0 1 3.807 1.553A5.3 5.3 0 0 1 46 23.308V34.9c0 .292-.117.572-.326.778a1.12 1.12 0 0 1-.786.322H29V20.427a2.44 2.44 0 0 1 .754-1.73 2.5 2.5 0 0 1 1.77-.697"/><path fill="#1e1e1e" d="M31.911 33.005a2.84 2.84 0 0 0-1.455.397 2.94 2.94 0 0 0-1.066 1.092 3.04 3.04 0 0 0 .002 2.988h-.384v1.514h2.912c.396.022.793-.04 1.166-.18a2.9 2.9 0 0 0 1.001-.638c.289-.28.518-.618.675-.992a3.07 3.07 0 0 0 0-2.372 3 3 0 0 0-.675-.992 2.9 2.9 0 0 0-1.002-.638 2.85 2.85 0 0 0-1.165-.18z"/><path fill="#1e1e1e" d="M34.865 37c.087-.312.132-.636.135-.964A4 4 0 0 0 34.83 35h-5.67c-.1.334-.154.683-.161 1.036 0 .327.042.652.126.964z"/><path fill="#1e1e1e" d="M46 30.105h-6.453V23.31a5.33 5.33 0 0 0-1.606-3.755A5.46 5.46 0 0 0 34.127 18H29v18h9.433c.294 0 .575-.115.784-.32.209-.204.327-.481.33-.772v-3.685c0-.172.069-.336.191-.457a.66.66 0 0 1 .463-.19H46zM22.01 33a2.98 2.98 0 0 0-2.616 1.488 2.96 2.96 0 0 0 .03 3.003h-.404V39h2.99c.793 0 1.553-.314 2.114-.873a2.98 2.98 0 0 0 0-4.218 3 3 0 0 0-2.114-.873z"/><path fill="#1e1e1e" d="M24.864 37a3.7 3.7 0 0 0 .136-.958A4 4 0 0 0 24.828 35h-5.656A4 4 0 0 0 19 36.042c.005.324.047.647.127.958z"/><path fill="#1e1e1e" d="M22 36a3 3 0 1 0-5.999 0A3 3 0 0 0 22 36"/><path fill="#1e1e1e" d="M12.916 33.005a2.85 2.85 0 0 0-1.458.397 2.95 2.95 0 0 0-1.067 1.092 3.04 3.04 0 0 0 .002 2.988H10v1.514h2.916c.397.022.794-.04 1.167-.18s.714-.357 1.003-.638c.289-.28.519-.618.676-.992a3.07 3.07 0 0 0 0-2.372 3 3 0 0 0-.676-.992 2.9 2.9 0 0 0-1.003-.638 2.9 2.9 0 0 0-1.167-.18Z"/><path fill="#1e1e1e" d="M15.866 37c.085-.312.13-.636.134-.964A4 4 0 0 0 15.83 35h-5.67c-.1.334-.154.683-.161 1.036 0 .327.042.652.126.964z"/><path fill="#dcdfe2" d="M7.267 11h15.094a6.6 6.6 0 0 1 4.694 1.967A6.76 6.76 0 0 1 29 17.716V36H5.738c-.461 0-.903-.185-1.229-.515A1.77 1.77 0 0 1 4 34.242V14.296a3.32 3.32 0 0 1 .96-2.331A3.25 3.25 0 0 1 7.267 11"/><path fill="#ebeef2" d="M34.03 34.474c-.214 0-.422-.07-.604-.2a1.27 1.27 0 0 1-.421-.533 4.75 4.75 0 0 0-1.587-2A3.9 3.9 0 0 0 29.15 31a3.9 3.9 0 0 0-2.269.741 4.75 4.75 0 0 0-1.586 2 1.26 1.26 0 0 1-.421.535c-.182.13-.391.198-.605.198H14.84c-.213 0-.423-.068-.604-.198a1.26 1.26 0 0 1-.42-.535 4.75 4.75 0 0 0-1.587-2A3.9 3.9 0 0 0 9.958 31c-.801 0-1.587.257-2.268.741a4.75 4.75 0 0 0-1.587 2 1.26 1.26 0 0 1-.422.534c-.18.13-.39.198-.603.2H4c.094.433.31.818.617 1.095a1.62 1.62 0 0 0 1.074.43h39.205c.145.001.29-.03.424-.094a1.1 1.1 0 0 0 .36-.273c.102-.118.183-.258.238-.412s.083-.32.082-.486v-.26H34.03Z"/><path fill="#1e1e1e" d="M13 36a3 3 0 1 0-5.999 0A3 3 0 0 0 13 36"/><path fill="#ebeef2" d="M10 37a1 1 0 1 0 0-2 1 1 0 0 0 0 2m30-2.658V34h-8v2h6.852c.304 0 .596-.175.812-.486.215-.31.336-.732.336-1.172"/><path fill="#1e1e1e" d="M32 36a3 3 0 1 0-5.999 0A3 3 0 0 0 32 36"/><path fill="#ebeef2" d="M29 37a1 1 0 1 0 0-2 1 1 0 0 0 0 2m17-13h-9.795a1.23 1.23 0 0 0-.852.335 1.13 1.13 0 0 0-.353.818v3.694c0 .152.031.303.092.443.06.14.15.268.261.375a1.23 1.23 0 0 0 .852.335H46z"/><path fill="#dcdfe2" d="M40 24h-4.5a.53.53 0 0 0-.353.132.43.43 0 0 0-.147.32v4.395c0 .152.033.303.098.443s.16.268.28.375a1.3 1.3 0 0 0 .419.25c.156.057.324.086.492.085H40z"/><path fill="#ebeef2" d="M46 32h-7.659c-.09 0-.177.053-.241.146a.64.64 0 0 0-.1.354c0 .133.036.26.1.354s.15.146.241.146H46z"/><path fill="#fff" d="M40 32h-1.645c-.094 0-.184.053-.251.146A.6.6 0 0 0 38 32.5c0 .133.037.26.104.354.066.093.157.146.251.146H40zm6 0h-1v1h1z"/></svg>