<svg xmlns="http://www.w3.org/2000/svg" width="50" height="50" fill="none"><path fill="#1E1E1E" d="M41.032 33a3.007 3.007 0 0 0-2.8 1.846 2.934 2.934 0 0 0 .176 2.636H38V39h2.995a3.008 3.008 0 0 0 2.776-1.852 2.996 2.996 0 0 0-1.626-3.92 3.008 3.008 0 0 0-1.15-.228h.037Z"/><path fill="#1E1E1E" d="M43.873 37c.08-.311.122-.634.127-.958A3.834 3.834 0 0 0 43.837 35h-5.674A3.834 3.834 0 0 0 38 36.042c0 .325.043.648.127.958h5.746Z"/><path fill="#1E1E1E" d="M41 36a3 3 0 1 0-6 0 3 3 0 0 0 6 0Z"/><path fill="#EBEEF2" d="M17.33 11.018h15.029a6.61 6.61 0 0 1 4.696 1.965A6.747 6.747 0 0 1 39 17.73V36H15.739a1.73 1.73 0 0 1-1.23-.515A1.766 1.766 0 0 1 14 34.243v-19.87a3.403 3.403 0 0 1 .978-2.385 3.334 3.334 0 0 1 2.36-.988l-.009.018Z"/><path fill="#1E1E1E" d="M31.524 18h9.074a5.43 5.43 0 0 1 3.807 1.553A5.313 5.313 0 0 1 46 23.308V34.9c0 .292-.117.572-.326.778a1.119 1.119 0 0 1-.786.322H29V20.427a2.44 2.44 0 0 1 .754-1.73 2.494 2.494 0 0 1 1.77-.697Z"/><path fill="#1E1E1E" d="M31.911 33.005a2.844 2.844 0 0 0-1.455.397 2.94 2.94 0 0 0-1.066 1.092 3.044 3.044 0 0 0 .002 2.988h-.384v1.514h2.912c.396.022.793-.04 1.166-.18a2.91 2.91 0 0 0 1.001-.638c.289-.28.518-.618.675-.992a3.07 3.07 0 0 0 0-2.372 3.005 3.005 0 0 0-.675-.992 2.91 2.91 0 0 0-1.002-.638 2.849 2.849 0 0 0-1.165-.18h-.009Z"/><path fill="#1E1E1E" d="M34.865 37c.087-.312.132-.636.135-.964A3.905 3.905 0 0 0 34.83 35h-5.67c-.1.334-.154.683-.161 1.036 0 .327.042.652.126.964h5.74Z"/><path fill="#1E1E1E" d="M46 30.105h-6.453V23.31a5.33 5.33 0 0 0-1.606-3.755A5.462 5.462 0 0 0 34.127 18H29v18h9.433c.294 0 .575-.115.784-.32.209-.204.327-.481.33-.772v-3.685c0-.172.069-.336.191-.457a.658.658 0 0 1 .463-.19H46v-.471ZM22.01 33a2.98 2.98 0 0 0-2.616 1.488 2.957 2.957 0 0 0 .03 3.003h-.404V39h2.99c.793 0 1.553-.314 2.114-.873a2.978 2.978 0 0 0 0-4.218 2.995 2.995 0 0 0-2.114-.873V33Z"/><path fill="#1E1E1E" d="M24.864 37a3.7 3.7 0 0 0 .136-.958A3.848 3.848 0 0 0 24.828 35h-5.656A3.848 3.848 0 0 0 19 36.042c.005.324.047.647.127.958h5.738Z"/><path fill="#1E1E1E" d="M22 36a3 3 0 1 0-5.999 0A3 3 0 0 0 22 36Z"/><path fill="#1E1E1E" d="M12.916 33.005a2.85 2.85 0 0 0-1.458.397 2.946 2.946 0 0 0-1.067 1.092 3.041 3.041 0 0 0 .002 2.988H10v1.514h2.916c.397.022.794-.04 1.167-.18.373-.14.714-.357 1.003-.638.289-.28.519-.618.676-.992a3.065 3.065 0 0 0 0-2.372 3.002 3.002 0 0 0-.676-.992 2.914 2.914 0 0 0-1.003-.638 2.856 2.856 0 0 0-1.167-.18Z"/><path fill="#1E1E1E" d="M15.866 37c.085-.312.13-.636.134-.964A3.905 3.905 0 0 0 15.83 35h-5.67c-.1.334-.154.683-.161 1.036 0 .327.042.652.126.964h5.74Z"/><path fill="#DCDFE2" d="M7.267 11h15.094a6.6 6.6 0 0 1 4.694 1.967A6.755 6.755 0 0 1 29 17.716V36H5.738c-.461 0-.903-.185-1.229-.515A1.769 1.769 0 0 1 4 34.242V14.296a3.324 3.324 0 0 1 .96-2.331A3.248 3.248 0 0 1 7.267 11Z"/><path fill="#EBEEF2" d="M34.03 34.474c-.214 0-.422-.07-.604-.2a1.269 1.269 0 0 1-.421-.533 4.754 4.754 0 0 0-1.587-2A3.907 3.907 0 0 0 29.15 31a3.91 3.91 0 0 0-2.269.741 4.754 4.754 0 0 0-1.586 2 1.26 1.26 0 0 1-.421.535c-.182.13-.391.198-.605.198H14.84c-.213 0-.423-.068-.604-.198a1.26 1.26 0 0 1-.42-.535 4.753 4.753 0 0 0-1.587-2A3.907 3.907 0 0 0 9.958 31c-.801 0-1.587.257-2.268.741a4.754 4.754 0 0 0-1.587 2 1.26 1.26 0 0 1-.422.534c-.18.13-.39.198-.603.2H4c.094.433.31.818.617 1.095a1.62 1.62 0 0 0 1.074.43h39.205c.145.001.29-.03.424-.094a1.1 1.1 0 0 0 .36-.273c.102-.118.183-.258.238-.412.055-.154.083-.32.082-.486v-.26H34.03Z"/><path fill="#1E1E1E" d="M13 36a3 3 0 1 0-5.999 0A3 3 0 0 0 13 36Z"/><path fill="#EBEEF2" d="M10 37a1 1 0 1 0 0-2 1 1 0 0 0 0 2Zm30-2.658V34h-8v2h6.852c.304 0 .596-.175.812-.486.215-.31.336-.732.336-1.172Z"/><path fill="#1E1E1E" d="M32 36a3 3 0 1 0-5.999 0A3 3 0 0 0 32 36Z"/><path fill="#EBEEF2" d="M29 37a1 1 0 1 0 0-2 1 1 0 0 0 0 2Zm17-13h-9.795a1.234 1.234 0 0 0-.852.335 1.127 1.127 0 0 0-.353.818v3.694c0 .152.031.303.092.443.06.14.15.268.261.375a1.234 1.234 0 0 0 .852.335H46v-6Z"/><path fill="#DCDFE2" d="M40 24h-4.5a.53.53 0 0 0-.353.132.43.43 0 0 0-.147.32v4.395c0 .152.033.303.098.443s.16.268.28.375a1.3 1.3 0 0 0 .419.25c.156.057.324.086.492.085H40v-6Z"/><path fill="#EBEEF2" d="M46 32h-7.659c-.09 0-.177.053-.241.146a.636.636 0 0 0-.1.354c0 .133.036.26.1.354.064.093.15.146.241.146H46v-1Z"/><path fill="#fff" d="M40 32h-1.645c-.094 0-.184.053-.251.146A.618.618 0 0 0 38 32.5c0 .133.037.26.104.354.066.093.157.146.251.146H40v-1Zm6 0h-1v1h1v-1Z"/></svg>