<svg xmlns="http://www.w3.org/2000/svg" width="551" height="601" fill="none"><path fill="#FDF36D" fill-rule="evenodd" d="M550.112.772h-550v600h550v-600ZM162.315 249.333c5.343 0 8.021 6.459 4.245 10.24L66.347 359.915a6 6 0 0 0 0 8.48l49.118 49.182a6 6 0 0 0 8.491 0l100.183-100.313c3.779-3.784 10.246-1.108 10.246 4.24v71.487c0 22.523 18.234 40.781 40.727 40.781h178.201a6 6 0 0 0 6-6v-69.561a6 6 0 0 0-6-6H387.91c-5.343 0-8.021-6.459-4.245-10.24l100.213-100.342a6.001 6.001 0 0 0 0-8.48l-49.118-49.182a6 6 0 0 0-8.491 0L326.086 284.28c-3.779 3.784-10.246 1.107-10.246-4.24v-71.488c0-22.522-18.234-40.78-40.728-40.78h-178.2a6 6 0 0 0-6 6v69.561a6 6 0 0 0 6 6h65.403Z" clip-rule="evenodd"/></svg>