<svg xmlns="http://www.w3.org/2000/svg" width="50" height="50" fill="none"><path fill="#1E1E1E" d="M35.031 37.898a2.899 2.899 0 0 0-2.523 4.368h-.399v1.484h2.922a2.922 2.922 0 0 0 0-5.844v-.008Z"/><path fill="#1E1E1E" d="M37.82 41.633a2.84 2.84 0 0 0 .125-.781 3.04 3.04 0 0 0-.156-.922h-5.516a2.688 2.688 0 0 0-.039 1.734l5.586-.031Z"/><path fill="#1E1E1E" d="M32.11 43.742a2.922 2.922 0 1 0 0-5.843 2.922 2.922 0 0 0 0 5.843Z"/><path fill="#EBEEF2" d="M35.422 40.82h-.781a2.531 2.531 0 1 0-5.055 0h-.781a3.311 3.311 0 1 1 6.617 0Z"/><path fill="#1E1E1E" d="M22.078 37.898a2.922 2.922 0 0 0-2.914 2.922 2.843 2.843 0 0 0 .367 1.446h-.398v1.484h2.914a2.922 2.922 0 1 0 0-5.844l.031-.008Z"/><path fill="#1E1E1E" d="M24.875 41.633c.075-.254.117-.517.125-.781a2.83 2.83 0 0 0-.164-.922h-5.469a2.687 2.687 0 0 0 0 1.734l5.508-.031Z"/><path fill="#EBEEF2" d="m25.375 37.945-4.188-20.508a.305.305 0 0 0-.296-.25h-.883a1.562 1.562 0 1 1 0-3.125h2.406a1.562 1.562 0 0 1 1.563 1.25l4.46 22.008-3.062.625Z"/><path fill="#EBEEF2" d="M42.719 36.625H14.164a1.03 1.03 0 0 0-1.031 1.031v2.14c0 .57.462 1.032 1.031 1.032H42.72a1.03 1.03 0 0 0 1.031-1.031v-2.14c0-.57-.462-1.032-1.031-1.032Z"/><path fill="#DCDFE2" d="M31.195 36.625h-17.03c-.57 0-1.032.462-1.032 1.031v2.14c0 .57.462 1.032 1.031 1.032h17.031c.57 0 1.032-.462 1.032-1.031v-2.14c0-.57-.462-1.032-1.032-1.032Z"/><path fill="#DCDFE2" d="M13.18 37.945 8.992 17.437a.305.305 0 0 0-.297-.25h-.883a1.563 1.563 0 1 1 0-3.125h2.407a1.562 1.562 0 0 1 1.562 1.25l4.492 22.008-3.093.625Z"/><path fill="#1E1E1E" d="M22.078 40.82a2.921 2.921 0 1 0-5.842.016 2.921 2.921 0 0 0 5.842-.016Z"/><path fill="#EBEEF2" d="M22.469 40.82h-.782a2.531 2.531 0 1 0-5.054 0h-.781a3.311 3.311 0 1 1 6.617 0Z"/><path fill="#EBEEF2" d="M19.89 40.82a.734.734 0 1 0-.726.727.727.727 0 0 0 .727-.727Z"/><path fill="#1E1E1E" d="M29.102 17.234h-7.618a.18.18 0 0 0-.18.18v19.031c0 .1.081.18.18.18h7.618a.18.18 0 0 0 .18-.18v-19.03a.18.18 0 0 0-.18-.18Z"/><path fill="#1E1E1E" d="M23.422 17.234h-7.617c-.1 0-.18.08-.18.18v19.031c0 .1.08.18.18.18h7.617c.1 0 .18-.08.18-.18v-19.03c0-.1-.08-.18-.18-.18Z"/><path fill="#EBEEF2" d="M18.469 17.234h2.297v1.672a.39.39 0 0 1-.391.39h-1.516a.39.39 0 0 1-.39-.39v-1.672Z"/><path fill="#1E1E1E" d="M39.406 29.39H31.79a.18.18 0 0 0-.18.18v6.875c0 .1.08.18.18.18h7.617c.1 0 .18-.08.18-.18V29.57a.18.18 0 0 0-.18-.18Z"/><path fill="#1E1E1E" d="M25.922 29.39h7.812a.18.18 0 0 1 .18.18v6.875a.18.18 0 0 1-.18.18h-7.632a.18.18 0 0 1-.18-.18v-7.054Z"/><path fill="#EBEEF2" d="M28.766 29.39h2.297v1.672a.39.39 0 0 1-.391.391h-1.516a.39.39 0 0 1-.39-.39V29.39Z"/></svg>