<?xml version="1.0" encoding="UTF-8" standalone="no"?>
<!-- Created with Inkscape (http://www.inkscape.org/) -->

<svg
   version="1.1"
   id="svg1"
   width="398.48621"
   height="336.46014"
   viewBox="0 0 398.48621 336.46014"
   sodipodi:docname="hgt logo simple2.svg"
   inkscape:version="1.4.2 (f4327f4, 2025-05-13)"
   xmlns:inkscape="http://www.inkscape.org/namespaces/inkscape"
   xmlns:sodipodi="http://sodipodi.sourceforge.net/DTD/sodipodi-0.dtd"
   xmlns="http://www.w3.org/2000/svg"
   xmlns:svg="http://www.w3.org/2000/svg">
  <defs
     id="defs1" />
  <sodipodi:namedview
     id="namedview1"
     pagecolor="#505050"
     bordercolor="#eeeeee"
     borderopacity="1"
     inkscape:showpageshadow="0"
     inkscape:pageopacity="0"
     inkscape:pagecheckerboard="0"
     inkscape:deskcolor="#505050"
     inkscape:zoom="1.1396484"
     inkscape:cx="211.90746"
     inkscape:cy="272.45244"
     inkscape:window-width="1377"
     inkscape:window-height="1211"
     inkscape:window-x="1020"
     inkscape:window-y="113"
     inkscape:window-maximized="0"
     inkscape:current-layer="svg1" />
  <path
     style="display:none;fill:#000000"
     d="m 117.65246,503.7529 c -3.77185,-1.51177 -2.03601,-3.48195 2.74348,-3.11385 3.87026,0.29808 7.09027,-0.98425 7.09027,-2.82362 0,-0.41509 -1.95271,-0.53462 -4.33936,-0.26561 l -4.33937,0.48911 -2.16063,-2.7468 c -2.83361,-3.60236 -2.73414,-6.9945 0.29391,-10.02254 2.60567,-2.60568 5.48198,-3.09407 8.5505,-1.45185 1.25242,0.67028 2.07903,0.67028 2.49328,0 0.34084,-0.55148 1.26815,-1.0027 2.06069,-1.0027 h 1.44098 v 8.54545 8.54546 l -2.45455,2.45454 c -2.6038,2.60381 -7.01118,3.14312 -11.3792,1.39241 z m 8.90332,-11.52168 1.31445,-1.58383 -1.04414,-1.66617 c -1.47933,-2.36064 -5.46496,-2.71561 -6.99511,-0.62301 l -1.26728,1.73311 0.99644,1.86186 c 1.21816,2.27615 5.20582,2.43464 6.99564,0.27804 z m -116.12187,4.4861 c -0.61746,-1.15375 -1.96618,-4.54944 -2.99714,-7.54598 l -1.87448,-5.44826 1.52918,-0.58681 c 1.96323,-0.75336 2.86606,0.28112 4.38187,5.02083 1.37069,4.28591 2.20062,3.94278 3.98841,-1.64899 l 1.21714,-3.80692 2.07533,0.30692 c 1.44013,0.21299 2.5074,1.60773 3.487,4.55693 0.77641,2.3375 1.72553,4.25 2.10916,4.25 0.38362,0 1.35862,-1.9125 2.16666,-4.25 l 1.46917,-4.25 h 4.41368 4.41368 l 1.61059,4.81452 1.61059,4.81452 2.17482,-5.14765 2.17482,-5.14765 1.71517,0.33313 c 1.03392,0.20081 2.39868,2.31909 3.43602,5.33313 l 1.72085,5 0.76253,-2 c 2.67894,-7.02646 3.5312,-8.5 4.91622,-8.5 0.85307,0 1.55103,0.63496 1.55103,1.41102 0,1.67436 -4.01411,12.71729 -5.06658,13.93832 -1.53198,1.77732 -4.58391,-0.5197 -6.1136,-4.60137 l -1.59202,-4.24797 -1.1133,3 c -1.78936,4.82177 -2.71539,6 -4.71571,6 h -1.88323 l -2.50778,-6.7414 c -1.37928,-3.70778 -2.81295,-6.74528 -3.18593,-6.75 -0.55543,-0.007 -2.57406,4.8232 -5.32483,12.7414 -0.82499,2.37475 -4.49993,1.3793 -5.53759,-1.5 -0.54508,-1.5125 -1.36504,-3.64567 -1.82212,-4.74038 l -0.83106,-1.99039 -2.09689,4.74039 c -2.25615,5.1004 -4.45065,6.02656 -6.26166,2.64266 z m 55.50331,1.34647 c -0.57694,-0.41181 -1.99572,-3.22375 -3.15285,-6.24875 -1.15713,-3.025 -2.43592,-6.3271 -2.84177,-7.338 l -0.7379,-1.83799 2.31243,0.33799 2.31242,0.338 1.41167,4.25 c 0.77641,2.3375 1.72553,4.25 2.10916,4.25 0.38362,0 1.35862,-1.90759 2.16666,-4.23908 0.86572,-2.49791 2.19572,-4.37786 3.23804,-4.57696 1.69469,-0.32371 2.23218,0.53614 5.19838,8.31604 l 0.76253,2 1.71637,-5 1.71636,-5 2.16875,-0.31955 c 2.76338,-0.40717 2.67803,0.71765 -0.66917,8.81955 l -2.6854,6.5 h -1.87936 c -2.01665,0 -2.8201,-1.06006 -4.87574,-6.43298 l -1.31344,-3.43298 -1.57252,4.93298 c -1.52184,4.774 -3.20503,6.23747 -5.38462,4.68173 z m 21.68838,-0.58079 -1.1055,-1.33205 1.42194,-1.91795 1.42193,-1.91796 1.69787,1.67246 c 1.86881,1.84085 1.29852,4.82754 -0.9218,4.82754 -0.77492,0 -1.90642,-0.59942 -2.51444,-1.33204 z m 7.86061,-9.59841 v -11.06955 h 1.89301 c 1.96862,0 3.10699,1.83889 3.10699,5.01892 v 1.85534 l 3.38743,-0.5497 3.38742,-0.54971 2.11258,2.11258 2.11257,2.11257 v 6 6 h -2 -2 v -4.8 c 0,-5.04378 -1.24012,-7.2 -4.14098,-7.2 -2.33591,0 -2.84589,1.03979 -3.28493,6.69759 l -0.37266,4.80241 -2.10072,0.31955 -2.10071,0.31955 z m 42.2,9.73045 c -0.66,-0.66 -1.2,-3.14912 -1.2,-5.53138 0,-2.92763 -0.48613,-4.51794 -1.5,-4.90699 -1.66741,-0.63985 -2.07224,-3.36163 -0.5,-3.36163 0.55,0 1,-0.9 1,-2 v -2 h 2.5 c 1.46188,0 2.5,0.57444 2.5,1.38337 0,0.76085 0.9,1.61872 2,1.90638 1.1,0.28766 2,1.24014 2,2.11663 0,0.92695 -0.83667,1.59362 -2,1.59362 h -2 v 4 4 h 2 c 1.33333,0 2,0.66667 2,2 v 2 h -2.8 c -1.54,0 -3.34,-0.54 -4,-1.2 z m 12.39669,-0.96541 c -0.87818,-1.25378 -1.59669,-3.94197 -1.59669,-5.97376 0,-2.03179 -0.52626,-3.86958 -1.16947,-4.08399 l -1.16948,-0.38982 1.41359,-3.19351 c 1.60575,-3.62764 4.82101,-4.30857 5.63561,-1.19351 0.28766,1.1 1.14553,2 1.90638,2 0.76085,0 1.38337,0.675 1.38337,1.5 0,0.825 -0.675,1.5 -1.5,1.5 h -1.5 v 4 4 h 2.07332 c 3.1478,0 2.03584,3.42728 -1.23518,3.80709 -1.84575,0.21432 -3.12713,-0.38159 -4.24145,-1.9725 z m 10.97433,0.59357 c -3.4647,-3.4647 -1.29564,-7.11176 4.81989,-8.10417 1.96957,-0.31962 3.29719,-1.01963 2.9621,-1.56182 -0.334,-0.54043 -2.11682,-0.73763 -3.96182,-0.43823 -3.93828,0.6391 -5.52826,-1.01933 -2.85284,-2.97564 2.91714,-2.13307 7.26888,-1.63198 10.05914,1.15828 l 2.50657,2.50657 -0.30203,5.24237 -0.30203,5.24236 -5.67898,0.25065 -5.67899,0.25065 z m 6.84719,-2.03515 c 0.86999,-0.33384 1.58179,-1.23384 1.58179,-2 0,-1.60688 -2.8048,-1.81876 -5,-0.3777 l -1.5,0.98469 1.5,0.98469 c 1.80429,1.18444 1.49269,1.14721 3.41821,0.40832 z m 10.83179,2.94471 c -2.48494,-1.0027 -1.35436,-3.49533 1.5,-3.30712 7.46574,0.49227 7.93134,-0.77317 1.08843,-2.95817 -4.74978,-1.51664 -5.45302,-3.54875 -2.31428,-6.68749 l 2.50399,-2.50399 3.72762,0.30952 3.72761,0.30953 0.34796,1.83477 0.34797,1.83477 -2.83965,-0.19073 c -4.16355,-0.27966 -5.33965,-0.0823 -5.33965,0.89619 0,0.48125 1.41961,1.15892 3.15469,1.50594 5.70513,1.14102 7.60433,4.71718 4.27388,8.04763 -1.49519,1.49519 -7.41566,2.02401 -10.17857,0.90915 z m 14.95794,-7.08772 0.29206,-7.75 h 1.5 1.5 l 0.29206,7.75 0.29207,7.75 h -2.08413 -2.08413 z m 8.45873,7.08333 c -0.90348,-0.90348 -0.82096,-12.55713 0.0986,-13.93067 0.44004,-0.65725 3.14101,-0.96897 6.73469,-0.77725 3.3,0.17605 6.675,0.3507 7.5,0.3881 0.825,0.0374 2.91796,-0.21987 4.65103,-0.57172 l 3.15102,-0.63974 2.09898,2.09898 2.09901,2.09897 v 6 6 h -2 -2 v -4.30887 c 0,-2.36988 -0.64864,-5.18238 -1.44143,-6.25 l -1.44143,-1.94113 -1.80857,1.10152 c -1.2057,0.73434 -1.97524,2.73439 -2.30857,6 l -0.5,4.89848 h -1.98039 -1.98039 l 0.28272,-4 c 0.15965,-2.2586 -0.31741,-4.81522 -1.0958,-5.87255 l -1.37853,-1.87255 -2.17381,0.68994 -2.1738,0.68994 v 5.43261 5.43261 h -1.83333 c -1.00834,0 -2.13334,-0.3 -2.5,-0.66667 z m 30.90435,-0.90517 c -3.4647,-3.4647 -1.29564,-7.11176 4.81989,-8.10417 1.96957,-0.31962 3.29719,-1.01963 2.9621,-1.56182 -0.334,-0.54043 -2.08996,-0.74199 -3.90214,-0.44791 l -3.29486,0.53468 -0.60154,-1.5676 c -0.80018,-2.08523 -0.41034,-2.35686 4.28692,-2.98689 l 4.00657,-0.5374 2.62805,2.62805 2.62805,2.62805 -0.30203,5.24237 -0.30203,5.24236 -5.67898,0.25065 -5.67899,0.25065 z m 6.84719,-2.03515 c 2.14175,-0.82186 2.01351,-3.39679 -0.16821,-3.3777 -2.53951,0.0222 -4.61567,1.584 -3.8191,2.87289 0.7788,1.26011 1.71135,1.37818 3.98731,0.50481 z m 11.97089,1.26525 -2.72243,-2.34173 v -3.31653 -3.31653 l 2.72243,-2.34173 c 3.19363,-2.74705 7.21448,-3.00813 10.53278,-0.6839 l 2.3669,1.65783 -1.75373,1.28236 -1.75372,1.28235 -1.89412,-1.18289 -1.89412,-1.1829 -1.74655,1.09989 c -2.25006,1.41698 -2.75446,4.06858 -1.14325,6.00998 l 1.26845,1.52838 3.33114,-0.62492 c 4.4544,-0.83565 5.88967,0.15984 3.70728,2.57136 -2.41281,2.66611 -7.65257,2.45644 -11.02106,-0.44102 z m 15.18445,-4.60858 c -0.76527,-7.76631 -0.40683,-9.04968 2.52753,-9.04968 h 1.98305 l -0.29207,7.73916 -0.29206,7.73915 -1.61611,0.30838 -1.6161,0.30839 z m 8.42645,-4.04968 v -11 h 2 2 v 11 11 h -2 -2 z m 8.67625,10.25 c -0.24299,-0.4125 -0.38204,-3.9 -0.30902,-7.75 l 0.13277,-7 h 2 2 l 0.29206,7.75 0.29207,7.75 h -1.98305 c -1.09067,0 -2.18185,-0.3375 -2.42483,-0.75 z m 9.01125,0.10417 c -0.37812,-0.37813 -0.6875,-5.3375 -0.6875,-11.02084 v -10.33333 h 2 2 v 6.04712 6.04713 l 3.94915,-3.17363 c 2.58029,-2.07357 4.54175,-2.94622 5.65879,-2.51757 l 1.70963,0.65604 -2.74841,2.86873 -2.74842,2.86872 0.99701,1.86292 c 0.54835,1.0246 1.93868,2.71513 3.08963,3.75672 2.71778,2.45956 2.64898,3.58382 -0.21932,3.58382 -1.41916,0 -3.18525,-1.18122 -4.57345,-3.05885 -2.54446,-3.44156 -4.29302,-3.42144 -5.11461,0.0589 -0.5768,2.44338 -2.12383,3.54284 -3.3125,2.35417 z m 18.01374,0.0137 c -1.18199,-1.18199 -0.77901,-4.12408 0.63944,-4.66839 2.01563,-0.77347 3.90297,0.79679 3.49623,2.90883 -0.37094,1.92615 -2.89514,3.00009 -4.13567,1.75956 z m 10.66284,-0.53749 c -2.20125,-1.06583 -4.36408,-4.76022 -4.36408,-7.45436 0,-2.22387 5.5014,-7.37602 7.87602,-7.37602 2.905,0 7.12398,2.10448 7.12398,3.55353 0,1.57402 -2.74614,2.66624 -3.52699,1.4028 -1.0638,-1.72126 -5.36436,-1.02786 -6.47301,1.04367 l -1.07037,2 1.13061,2.11255 1.1306,2.11255 3.84422,-0.61472 c 4.42906,-0.70823 6.29251,0.94571 3.42659,3.04132 -2.15026,1.57231 -6.06083,1.64912 -9.09757,0.17871 z m 15.09047,-1.28496 c -4.77177,-4.77176 -2.21829,-12.08409 4.60077,-13.17511 l 3.55532,-0.56884 3.19468,2.68814 3.19468,2.68815 v 2.95656 c 0,4.21542 -3.94461,7.86565 -8.5,7.86565 -2.47924,0 -4.35079,-0.75988 -6.04545,-2.45455 z m 9.37553,-4.93694 c 0.51738,-4.53234 -4.72828,-6.53573 -6.83008,-2.60848 l -1.07037,2 1.10244,2.05993 1.10245,2.05993 2.68274,-0.30993 2.68274,-0.30993 z m 8.16992,-0.55766 v -7.94918 l 6.25,0.43836 c 8.77174,0.61523 8.89165,0.61428 12.40103,-0.0982 l 3.15102,-0.63974 2.09898,2.09898 2.09897,2.09896 v 6 6 h -1.94774 -1.94774 l -0.30226,-5.14701 -0.30226,-5.147 -1.80857,-1.103 -1.80857,-1.10299 -1.44143,1.94113 c -0.79279,1.06762 -1.44143,3.88012 -1.44143,6.25 v 4.30887 h -1.94774 -1.94774 l -0.30226,-5.14701 -0.30226,-5.147 -1.80857,-1.103 -1.80857,-1.10299 -1.44143,1.94113 c -0.79279,1.06762 -1.44143,3.88012 -1.44143,6.25 v 4.30887 h -2 -2 z m -471,-2.05082 v -4 h 56 56 v 4 4 h -56 -56 z m 512,0 v -4 h 57.5 57.5 v 4 4 h -57.5 -57.5 z m -128.03876,-8.54671 c -1.57909,-1.90268 -0.41415,-4.68627 1.78574,-4.26698 2.1985,0.41903 2.87439,4.36127 0.87901,5.12697 -0.81387,0.31231 -2.01301,-0.0747 -2.66475,-0.85999 z m 16.74,0.91461 c -1.00269,-1.00269 -0.86641,-4.14779 0.20852,-4.81213 1.75672,-1.08571 4.19898,0.67789 3.89311,2.81129 -0.30299,2.11332 -2.78056,3.32192 -4.10163,2.00084 z m -91.26055,-1.46386 c -0.37254,-0.60278 0.0283,-1.80162 0.8908,-2.6641 l 1.56813,-1.56813 1.49075,1.23721 c 0.81991,0.68046 1.24435,1.87931 0.9432,2.66409 -0.64567,1.68259 -3.92061,1.90409 -4.89288,0.33093 z m -46.44069,-27.2365 v -4.33246 l -3.70583,-2.41754 c -2.0382,-1.32965 -4.61838,-3.98919 -5.73372,-5.91011 l -2.02789,-3.49256 -0.3797,-10.25744 -0.3797,-10.25743 h 7.98191 7.98192 l 0.47899,7.46377 c 0.26345,4.10508 1.05273,8.15508 1.75395,9 1.91557,2.30811 4.56526,1.8518 5.86955,-1.01082 3.10177,-6.80763 0.1098,-13.27936 -11.30494,-24.45295 -4.7759,-4.675 -9.65158,-10.3 -10.83485,-12.5 l -2.1514,-4 0.0424,-7 0.0424,-7 2.13958,-4.12421 c 4.41986,-8.51963 12.98722,-12.31778 23.35128,-10.35227 9.62154,1.82468 14.60726,7.92119 15.62103,19.10129 l 0.5328,5.87519 h -8.63889 -8.63889 v -3.30887 c 0,-1.81988 -0.60498,-4.13624 -1.34441,-5.14746 l -1.34441,-1.83859 -2.5361,0.63652 c -3.10691,0.77979 -3.92697,3.43041 -2.24817,7.2666 0.69603,1.59049 6.02237,7.72148 11.83631,13.62442 l 10.57081,10.73263 1.66217,5.71768 1.66218,5.71768 -0.5415,7.1599 c -0.64995,8.59379 -4.22961,16.44786 -8.70003,19.08861 l -3.01685,1.7821 v 4.28439 4.28439 h -9 -9 z m -199.36274,-4.09972 c -5.52917,-2.0178 -9.45909,-6.22878 -11.16077,-11.95893 l -1.47649,-4.97189 0.006,-26.0685 c 0.003,-15.10438 0.44676,-27.6572 1.05455,-29.84583 1.32195,-4.76031 6.38359,-10.5923 10.79171,-12.43413 4.37235,-1.82688 14.96825,-1.81584 19.2807,0.0201 7.19041,3.06116 10.5975,9.5052 10.96164,20.73247 l 0.24192,7.45891 -3.16805,-0.0556 c -1.74243,-0.0305 -5.41805,-0.14305 -8.16805,-0.25 l -5.00042,-0.19442 v -5.06574 c 0,-2.78616 -0.46583,-5.93616 -1.03518,-7 -1.40429,-2.62394 -5.4794,-2.46538 -7.40812,0.28825 l -1.5567,2.2225 v 24.05499 24.05499 l 1.59656,2.2794 c 2.03356,2.90332 5.43027,2.50491 7.11367,-0.83439 0.69316,-1.375 1.26692,-5.7312 1.27503,-9.68045 l 0.01474,-7.18045 -2.18016,-0.31955 -2.18016,-0.31955 0.25794,-6.99445 c 0.14187,-3.84694 0.34258,-7.07908 0.44603,-7.18253 0.18637,-0.18637 16.00226,-0.52259 18.40635,-0.39129 l 1.25,0.0683 v 25 25 h -2.97432 -2.97432 l -1.65286,-3.25 c -2.24948,-4.42315 -2.24144,-4.41925 -3.98221,-1.93396 -3.34311,4.77296 -11.64267,6.99117 -17.77903,4.75178 z m 44.7901,0.51551 c -0.23505,-0.22916 -0.42736,-16.09166 -0.42736,-35.25 v -34.83333 h -5.04044 -5.04044 l 0.29044,-8.25 0.29044,-8.25 h 18.5 18.5 l 0.29044,8.25 0.29044,8.25 H 14.02665 8.48621 v 34.95469 34.95468 l -3.25,0.59107 c -3.3521,0.60964 -12.56539,0.32119 -13.32264,-0.41711 z m 352.56617,0.0418 c -7.69517,-2.52344 -11.67139,-6.30092 -13.81569,-13.12513 -0.65759,-2.0928 -1.19529,-14.35555 -1.33737,-30.5 l -0.2376,-27 1.75161,-4 c 2.21074,-5.04847 6.21794,-9.34944 10.3634,-11.12316 4.62391,-1.97844 14.94912,-1.71543 19.78212,0.50389 8.08987,3.71488 10.5,9.01422 10.5,23.08715 v 10.03212 h -8 -8 v -7.77749 c 0,-8.39524 -1.56566,-12.22251 -5,-12.22251 -1.03763,0 -2.58711,1.00013 -3.4433,2.22251 l -1.5567,2.2225 v 24.05499 24.05499 l 1.5567,2.2225 c 1.71272,2.44525 4.3832,2.88261 6.2433,1.02251 0.66,-0.66 1.2,-3.52219 1.2,-6.36043 0,-2.83823 0.28171,-7.21575 0.62603,-9.72781 l 0.62603,-4.56738 7.87632,-0.32219 7.87632,-0.32219 -0.002,12.09272 -0.002,12.09271 -2.32022,4.40729 c -2.98502,5.67007 -8.72006,8.97038 -16.47296,9.47958 -3.13875,0.20615 -6.83473,0.005 -8.21329,-0.44713 z m 103.74588,0.0826 -7.76059,-0.29226 0.26059,-43.20774 0.26059,-43.20773 7.62297,-0.28978 7.62296,-0.28977 0.53783,2.05663 c 0.44851,1.71511 -0.17115,85.52292 -0.63234,85.52292 -0.0833,0 -3.64369,-0.13151 -7.91201,-0.29225 z m -563.73941,-43.10074 v -42.89301 l 1.58179,-0.60699 c 0.86998,-0.33385 4.69498,-0.60699 8.5,-0.60699 h 6.91821 v 15.5 15.5 h 4.5 4.5 v -15.5 -15.5 h 8 8 v 43.5 43.5 h -8 -8 v -20 -20 h -4.5 -4.5 v 20 20 h -8.5 -8.5 z m 171,7.89301 v -35 h -5.04044 -5.04044 l 0.29044,-8.25 0.29044,-8.25 18.25,-0.2953 18.25,-0.2953 v 8.5453 8.5453 h -5 -5 v 35 35 h -8.5 -8.5 z m 29.35255,30.29262 c 0.34183,-2.63594 1.55161,-14.69262 2.68838,-26.79262 1.13678,-12.1 2.83011,-29.425 3.76297,-38.5 l 1.6961,-16.5 14.19959,-0.27715 14.1996,-0.27715 0.53551,3.27715 c 0.29453,1.80243 1.684,16.10215 3.08772,31.77715 1.40371,15.675 2.98172,32.325 3.50669,37 0.52496,4.675 0.95817,9.9625 0.96269,11.75 l 0.008,3.25 h -7.45469 -7.45468 l -0.53545,-3.25 c -0.29449,-1.7875 -0.65238,-4.825 -0.79531,-6.75 l -0.25987,-3.5 h -5.5 -5.5 l -0.5,6.5 -0.5,6.5 -8.38448,0.29262 -8.38449,0.29261 z m 26.64745,-24.44849 c 0,-0.63573 -0.71429,-10.19823 -1.5873,-21.25 -2.25534,-28.55099 -3.35869,-28.22574 -5.40486,1.59326 -0.55431,8.07807 -1.00784,16.06557 -1.00784,17.75 v 3.06261 h 4 c 2.3596,0 4,-0.47402 4,-1.15587 z m 70.23938,-14.09413 0.26062,-43.25 7.62297,-0.28978 7.62296,-0.28977 0.58488,2.23656 c 0.32168,1.23011 0.61314,20.82301 0.64768,43.53978 l 0.0628,41.30321 h -8.53127 -8.53128 z m 24,0 0.26062,-43.25 12.67331,-0.2793 12.67331,-0.27931 0.49175,1.77931 c 0.27046,0.97861 1.98432,12.49554 3.80857,25.59317 1.93435,13.88802 3.61652,23.05784 4.03584,22 0.39545,-0.99763 1.8833,-10.58887 3.30633,-21.31387 1.42303,-10.725 2.84623,-21.4125 3.16265,-23.75 l 0.57533,-4.25 h 12.88645 12.88646 v 43.5 43.5 h -7.48512 -7.48512 l -0.26488,-29.75 -0.26488,-29.75 -4.87759,29.75 -4.87759,29.75 h -7.68438 -7.68437 l -4.81665,-27.75 c -2.64915,-15.2625 -5.18024,-28.65 -5.62464,-29.75 -0.4444,-1.1 -0.83653,11.3875 -0.87139,27.75 l -0.0634,29.75 h -7.51062 -7.51063 z m 73.15155,40.5 c 0.58764,-2.93912 2.28041,-20.42763 5.63818,-58.25 1.14745,-12.925 2.27595,-24.07491 2.50778,-24.77758 l 0.42151,-1.27759 14.2708,0.27759 14.2708,0.27758 1.68939,18 c 4.17573,44.4913 6.03289,63.19792 6.52757,65.75 l 0.53304,2.75 h -7.99579 -7.99579 l -0.68976,-7 -0.68976,-7 h -5.33246 -5.33246 l -0.60699,1.58179 c -0.33385,0.86998 -0.60699,4.01998 -0.60699,7 v 5.41821 h -8.57946 -8.57945 z m 26.60907,-26.90587 c 0,-3.90496 -3.23373,-41.88233 -3.59846,-42.2608 -0.22085,-0.22916 -0.6285,-0.18971 -0.90589,0.0877 -0.58618,0.58617 -3.46417,33.2906 -3.48295,39.57898 l -0.0127,4.24999 h 4 4 z m 71.77075,-13.88552 0.27076,-43.54199 7.72924,0.29169 7.72925,0.29169 0.26062,43.25 0.26063,43.25 -8.26063,3e-4 -8.26062,3e-4 z m 23.74384,35.28933 c 0.008,-4.53637 0.12052,-24.11044 0.25,-43.49794 l 0.23541,-35.25 h 8 8 v 35.875 35.875 l 3.125,0.625 c 1.71875,0.34375 5.99375,0.625 9.5,0.625 h 6.375 v 7 7 l -17.75,-0.002 -17.75,-0.002 z m 63.48541,-35.28838 v -43.54044 l 8.25,0.29044 8.25,0.29044 0.5,15.84949 0.5,15.84948 3.33332,-14.34948 c 1.83332,-7.89222 3.55115,-15.13699 3.81739,-16.09949 l 0.48407,-1.75 h 7.87359 c 4.33048,0 8.05241,0.3375 8.27097,0.75 0.21855,0.4125 -1.52339,8.85 -3.87099,18.75 -2.34759,9.9 -4.29985,19.25565 -4.33835,20.79034 -0.0385,1.53468 1.95833,10.98468 4.43741,21 2.47907,10.01531 4.90622,19.89716 5.39367,21.95966 l 0.88626,3.75 -8.64367,-0.0101 -8.64367,-0.0101 -4.31677,-19.73989 c -2.37422,-10.85694 -4.6629,-20.09357 -5.08596,-20.52585 -0.42305,-0.43228 -0.60998,8.45522 -0.41539,19.75 l 0.3538,20.53594 h -8.51784 -8.51784 z m -342.2481,-69.5453 c -3.16146,-0.46303 -6.6443,-1.32149 -7.73965,-1.90771 -5.57336,-2.98276 -6.65821,-14.90251 -2.51225,-27.6033 1.375,-4.2122 2.5,-8.42094 2.5,-9.35276 0,-4.01943 3.50824,-11.39947 7.5626,-15.90889 7.01849,-7.80626 17.48422,-11.11784 35.1874,-11.13405 l 8.25,-0.008 v 8 8 h -5.5 c -5.55363,0 -6.49016,0.60984 -4.3,2.8 l 1.2,1.2 36.55,-0.004 36.55,-0.004 4.5,-2.992 4.5,-2.99144 4.60212,-0.004 c 8.27653,-0.008 14.89788,6.89437 14.89788,15.52984 0,4.35981 1.34868,6.4656 4.14098,6.4656 2.71187,0 3.05012,-1.3974 2.94048,-12.14794 l -0.10241,-10.04143 23.76047,0.59445 c 13.06827,0.32695 40.31734,0.87238 60.55349,1.21207 l 36.79302,0.61763 -0.29302,6.63261 -0.29301,6.63261 -7,0.5 -7,0.5 -0.31071,3.75571 -0.3107,3.75571 -2.98226,1.54219 c -1.64024,0.8482 -3.40178,2.64563 -3.91454,3.99429 -0.51276,1.34865 -1.50593,2.47357 -2.20704,2.4998 -0.70111,0.0262 -6.99204,0.15603 -13.97984,0.28843 -6.9878,0.1324 -13.0253,0.56093 -13.41667,0.9523 -1.29747,1.29746 -10.52285,0.73678 -13.84926,-0.8417 -2.09651,-0.99486 -3.9131,-2.97215 -5.053,-5.5 -2.0062,-4.44896 -3.38687,-4.92032 -5.32445,-1.81776 l -1.32957,2.12898 -6.16098,-0.61925 c -4.18404,-0.42055 -7.72128,-0.14553 -11.02356,0.85707 l -4.86258,1.47633 -4.38085,-1.10311 -4.38085,-1.10311 -3.25657,1.53939 -3.25657,1.53938 -7.57541,-1.09631 c -9.18527,-1.32929 -10.92459,-0.81659 -10.92459,3.22028 v 3.03138 h -1.83102 c -1.00706,0 -2.46956,1.19459 -3.25,2.65463 -3.19114,5.97 -14.5687,6.93555 -33.49754,2.84275 -1.14321,-0.24718 -2.55165,-1.48774 -3.12987,-2.7568 l -1.05131,-2.30736 -10.87013,0.79561 c -5.97857,0.43759 -17.82585,1.12761 -26.32728,1.53339 l -15.45716,0.73778 -0.5843,2.5 -0.58431,2.5 -5.16785,0.52392 -5.16785,0.52393 -2.79069,2.67303 c -5.582,5.34665 -10.20306,6.35359 -21.53879,4.69338 z m 15.9981,-9.19194 c 1.51379,-1.17132 1.68493,-3.10916 0.19316,-2.18719 -0.58125,0.35923 -2.14807,0.37927 -3.48181,0.0445 -4.26333,-1.07003 -7.00978,-9.20258 -5.45096,-16.14093 1.07101,-4.76707 5.27601,-8.79999 8.20588,-7.87009 l 2.02036,0.64124 -0.45003,-1.35494 c -0.24752,-0.74522 -1.68139,-1.79008 -3.18639,-2.32192 l -2.73636,-0.96698 -2.58476,1.46698 c -1.42163,0.80684 -3.52849,2.7391 -4.68193,4.29391 l -2.09716,2.82695 v 7.17308 7.17307 l 2.28786,3.67929 c 3.19399,5.13652 8.04562,6.57351 11.96214,3.54303 z m 5.91562,-9.46447 c 3.83999,-9.19038 -3.9611,-18.78285 -9.5239,-11.71089 -4.18207,5.31665 -3.32117,12.11266 2.00717,15.84478 l 2.16032,1.51314 1.93005,-1.03293 c 1.06153,-0.56811 2.60339,-2.64446 3.42636,-4.6141 z m 100.34534,-1.50785 c 1.3187,-2.16282 1.98281,-5.03195 1.9853,-8.57692 l 0.004,-5.32693 -2.93243,-2.93242 -2.93242,-2.93243 -2.54166,1.15806 c -5.6376,2.56866 -7.14386,14.51699 -2.45878,19.50404 3.17541,3.38006 6.47304,3.04816 8.87625,-0.8934 z m 92.76449,-11.05582 c 0.50622,-6.10427 -0.89189,-9.69418 -3.77545,-9.69418 -2.90154,0 -4.28181,3.58814 -3.76724,9.79327 0.31826,3.83777 1.02024,5.91856 2.31645,6.86637 l 1.8598,1.35992 1.45901,-1.45901 c 0.80246,-0.80246 1.6608,-3.89232 1.90743,-6.86637 z m 13.66785,4.08331 c 2.79299,-3.98756 1.47096,-12.77749 -1.92178,-12.77749 -2.09569,0 -4.52152,4.02381 -4.52152,7.5 0,3.07932 2.3577,7.5 4,7.5 0.48763,0 1.58711,-1.00013 2.4433,-2.22251 z m 13.35008,-7.27749 -0.29338,-5 h -1.99553 -1.99552 l -0.88997,4.21875 -0.88996,4.21874 1.77214,2.70462 1.77213,2.70462 1.40673,-1.92336 c 0.88366,-1.20819 1.29764,-3.78255 1.11336,-6.92337 z m -40.98301,-5.75 0.31036,-3.75 -1.81036,-0.0765 c -0.99571,-0.0421 -2.48537,-0.20555 -3.31037,-0.36326 -0.825,-0.15771 -11.69545,-0.61023 -24.15655,-1.00559 l -22.65656,-0.71884 -0.66796,2.10457 c -0.36739,1.15751 -0.37203,3.45198 -0.0103,5.09882 l 0.65764,2.99424 25.66688,-0.26672 25.66685,-0.26672 z m -439.81037,31.25 v -4 h 61 61 v 4 4 h -61 -61 z m 504.18664,-0.25 0.31336,-3.25 61.25,-0.25769 61.25,-0.25768 v 3.50768 3.50769 H 448.92285 387.35949 Z M 46.48621,325.11458 c -5.04224,-1.82381 -8.2948,-3.9048 -10.12879,-6.4804 -1.14916,-1.61386 -1.88512,-3.13856 -1.63545,-3.38823 0.88509,-0.8851 16.29868,1.73465 18.47906,3.14076 3.33588,2.1513 4.5364,1.74137 2.77463,-0.94743 l -1.55666,-2.37576 -9.7164,-1.19599 c -5.34401,-0.65779 -13.04043,-1.61773 -17.10314,-2.13319 l -7.38674,-0.93721 -1.35417,1.12386 c -1.57562,1.30765 -8.32954,0.47704 -12.87234,-1.58305 l -3,-1.36046 2.5,-0.0965 c 5.98289,-0.23102 6.56521,-3.69256 0.93963,-5.58554 -6.20872,-2.08921 -4.67734,-7.03983 1.81037,-5.85255 l 3.25,0.59476 v -4.17703 c 0,-4.52815 -1.00938,-6.9975 -4.64857,-11.37228 l -2.35143,-2.82675 v -5.60882 -5.60883 L 2.2431,266.05626 0,263.66859 l 0.26582,-9.67678 0.26582,-9.67677 1.6191,-1.21394 c 0.8905,-0.66766 1.95286,-1.34266 2.36079,-1.5 0.40793,-0.15733 1.05302,-3.88606 1.43353,-8.28606 0.69044,-7.98389 2.24937,-16.76904 6.83184,-38.5 l 2.42504,-11.5 -0.46989,-6.67988 -0.4699,-6.67987 5.77905,-6.02736 c 6.08702,-6.34855 6.66669,-6.60406 18.22423,-8.03299 l 7.27923,-0.89998 3.88169,-3.50687 3.88169,-3.50688 5.33908,-0.55792 c 2.9365,-0.30687 12.53909,-0.79836 21.33909,-1.09221 31.6188,-1.05582 68.04299,-2.66621 70.25,-3.10589 l 2.25,-0.44825 v -7.85851 -7.8585 l 1.5,-1.24489 1.5,-1.24489 1.48978,1.23641 1.48979,1.23641 0.26021,44.63604 0.26022,44.63603 2.25375,0.98874 c 4.15135,1.82124 1.65519,3.00889 -6.93155,3.29796 l -8.51639,0.28671 -1.17957,-1.4213 c -0.82156,-0.98992 -1.0956,-6.08494 -0.90291,-16.78671 l 0.27667,-15.3654 4.25,0.18933 4.25,0.18933 v -20.0685 -20.06849 l -6.25,0.70503 c -8.13948,0.91818 -16.53778,3.77655 -25.37311,8.63576 l -7.12311,3.91754 h -12.2265 c -11.37891,0 -19.62438,0.39503 -63.02728,3.01953 l -16.5,0.99773 -1.75,2.10215 c -1.02159,1.22716 -1.75,3.75922 -1.75,6.08321 v 3.98106 l 35.25,-0.78548 c 19.3875,-0.43201 37.05,-0.81084 39.25,-0.84184 l 4,-0.0564 0.30861,4.27272 c 0.42761,5.92032 -2.54781,34.87146 -3.83013,37.26749 -3.07861,5.75247 -12.00765,6.95983 -51.47125,6.95983 H 11.6454 l -0.69402,6.48063 c -0.38171,3.56434 -0.46125,7.08721 -0.17675,7.82859 l 0.51726,1.34796 18.33425,1.21539 c 10.08383,0.66847 24.07756,1.49012 31.09716,1.82588 7.93928,0.37976 12.76291,1.01109 12.76291,1.67045 0,2.22822 -5.18318,28.30754 -5.82505,29.30888 -0.71369,1.11339 -48.0102,-1.82044 -51.42495,-3.18992 -0.9625,-0.38601 -1.75663,-1.44119 -1.76474,-2.34485 -0.008,-0.90365 -0.29266,-6.64215 -0.63233,-12.75221 -0.34098,-6.1335 -0.22096,-11.35433 0.26797,-11.6565 0.48706,-0.30102 7.40911,-0.16442 15.38233,0.30357 7.97322,0.46798 20.34677,1.07674 27.49677,1.35279 l 13,0.50193 -6,-0.84955 c -3.3,-0.46725 -16.27003,-1.4295 -28.8223,-2.13833 l -22.8223,-1.28878 -0.91239,1.44203 c -1.04478,1.6513 -1.23846,20.83731 -0.29005,28.73407 0.44288,3.68758 1.19846,5.59327 2.49217,6.28564 2.61016,1.39692 52.77232,5.05487 64.5735,4.70887 l 9.77308,-0.28654 4.03526,-7.52976 c 5.47458,-10.21549 8.68408,-14.20765 15.60459,-19.40989 5.68537,-4.27377 20.92066,-11.04294 23.16811,-10.29379 0.60635,0.20211 -2.70052,2.21695 -7.3486,4.4774 -4.64809,2.26046 -11.02643,6.41797 -14.17409,9.23892 l -5.72302,5.129 -3.50583,7.19406 c -1.92821,3.95673 -3.92097,9.89406 -4.42835,13.19406 -1.09283,7.10773 -0.36146,18.69386 1.24575,19.73469 0.62396,0.40408 3.77822,0.74158 7.00947,0.75 l 5.875,0.0153 -0.68565,3.25 c -0.37711,1.7875 -1.13447,5.93861 -1.68303,9.22469 -0.54855,3.28608 -1.17383,6.15115 -1.3895,6.36683 -0.21568,0.21567 -9.48685,-0.0995 -20.60261,-0.70043 l -20.21048,-1.09257 -4.46648,1.97574 c -4.22558,1.86918 -10.91167,2.46913 -14.21225,1.27528 z m 36.85493,-9.7259 c 2.65188,-2.65187 0.22369,-3.57364 -9.41395,-3.57364 h -9.44098 v 2.4501 2.45009 l 5.75,0.39389 c 7.45348,0.51059 11.3908,-0.006 13.10493,-1.72044 z m 1.78772,-15.10152 5.14266,-2.51418 0.65585,-3.49598 c 0.84356,-4.49658 0.36582,-5.14983 -4.34881,-5.94636 -5.41924,-0.91557 -17.55528,2.7351 -19.6328,5.90579 -1.96589,3.00032 -3.46776,8.22891 -2.61816,9.11478 1.46113,1.5235 15.71113,-0.57554 20.80126,-3.06405 z M 4.8441,245.50999 c -0.29018,-0.99277 -1.05192,-1.63137 -1.69275,-1.41911 -1.71269,0.56731 -2.10084,18.0779 -0.46483,20.96989 l 1.27524,2.25427 0.70498,-10 c 0.38774,-5.5 0.46755,-10.81227 0.17736,-11.80505 z m 162.41698,-29.45081 0.51488,-69.75586 -2.1827,-4.27844 c -2.21963,-4.35084 -2.09927,-6.20984 0.40206,-6.20984 h 1.39108 l 0.29991,-5.75 0.2999,-5.75 2.25,-0.31955 2.25,-0.31955 v 7.01888 7.01889 l 36.25,11.97263 c 19.9375,6.58494 54.925,18.33396 77.75,26.10893 22.825,7.77498 47.8,16.16639 55.5,18.6476 7.7,2.48121 23.5625,7.65804 35.25,11.50407 l 21.25,6.99278 v 36.08304 36.08303 l -41.25,-0.75632 c -22.6875,-0.41597 -71.85,-1.07731 -109.25,-1.46965 l -68,-0.71332 -2.06445,1.82427 c -1.35416,1.19661 -3.63183,1.82427 -6.62,1.82427 h -4.55555 z m 138.48535,57.21539 c 1.50688,-1.39726 2.73978,-2.97226 2.73978,-3.5 0,-2.24577 1.78564,-0.69817 2.64277,2.29047 l 0.93208,3.25 h 2.46258 2.46257 v -23.94398 -23.94398 l -7.37128,-1.3514 c -4.05421,-0.74328 -7.51918,-1.20351 -7.69995,-1.02274 -0.18076,0.18076 -0.64091,3.37639 -1.02255,7.10139 l -0.69389,6.77272 2.1797,0.57 2.17969,0.57001 -0.28586,9.01808 -0.28586,9.01809 -1.66618,1.04791 -1.66617,1.04792 -1.58383,-1.31445 -1.58382,-1.31446 v -25.29577 c 0,-13.91267 0.27314,-26.00757 0.60699,-26.87755 0.84265,-2.19591 4.10897,-1.98103 5.35783,0.35247 0.56935,1.06384 1.03518,4.37996 1.03518,7.36916 v 5.4349 l 3.25,0.56636 c 1.7875,0.3115 4.65105,0.86434 6.36346,1.22853 l 3.11345,0.66217 -0.42762,-7.15383 c -0.77581,-12.97873 -5.00819,-20.60052 -13.68226,-24.63939 -8.70386,-4.05274 -14.28889,-2.5534 -18.38701,4.93614 l -1.73002,3.1617 v 32 32 l 2.70585,5.5 c 3.20476,6.51408 6.66231,8.93715 12.80437,8.97339 l 4.51022,0.0266 z m 32.73978,-27.53899 v -30.07945 l 3,0.65891 3,0.65891 v -7.11084 c 0,-4.81527 -0.40353,-7.23598 -1.25,-7.49847 -0.6875,-0.21319 -6.0498,-1.93305 -11.91623,-3.8219 l -10.66623,-3.43428 -0.42718,3.10329 c -0.23494,1.70681 -0.38514,5.11682 -0.33377,7.5778 l 0.0934,4.47452 3,0.98535 c 1.65,0.54195 3.17948,1.1079 3.39884,1.25766 0.66663,0.45514 0.78194,4.67342 0.94464,34.55796 l 0.15653,28.75 h 5.5 5.5 z m -62.51519,-17.47372 c 0.40819,-25.60425 0.49,-46.80535 0.18179,-47.11356 -0.78335,-0.78334 -13.89823,-5.32359 -15.39299,-5.3289 l -1.22638,-0.004 -0.27362,17.25 -0.27361,17.25 -2.93334,-0.21337 c -1.61334,-0.11735 -3.52584,-0.44073 -4.25,-0.71861 l -1.31666,-0.50525 v -18.29698 -18.29698 l -8.75,-2.84005 c -4.8125,-1.56203 -9.2572,-3.03658 -9.87712,-3.27678 -1.46218,-0.56655 -2.19102,15.20746 -2.89465,62.64802 -0.29776,20.075 -0.77974,38.4125 -1.07107,40.75 l -0.52971,4.25 h 10.4076 10.4076 l 0.65367,-12.157 c 0.35953,-6.68635 0.65368,-17.0926 0.65368,-23.125 v -10.968 l 3.125,0.625 c 1.71875,0.34375 3.81539,0.625 4.65921,0.625 h 1.53421 l -0.62866,22.36389 c -0.34576,12.30013 -0.3424,22.65013 0.007,23 0.34986,0.34986 4.32821,0.63611 8.84076,0.63611 h 8.20466 z M 79.48621,269.28448 c 0,-0.33051 0.43709,-1.41764 0.97131,-2.41584 0.53423,-0.9982 1.03777,-5.7163 1.119,-10.48467 l 0.14768,-8.66975 1.631,0.31102 1.63101,0.31101 0.29035,7.06816 c 0.32697,7.95946 -0.74087,11.7786 -3.74248,13.38501 -1.12633,0.60279 -2.04787,0.82557 -2.04787,0.49506 z m 33.5,-24.98711 c 3.45679,-2.90533 10.44189,-5.46196 19.00074,-6.9545 8.03273,-1.40079 15.49926,-1.12542 15.49926,0.57163 0,0.46077 -0.64259,0.59118 -1.42798,0.2898 -3.22707,-1.23834 -19.33353,2.20291 -33.07202,7.06605 l -2,0.70796 z m 9.04271,-27.41323 c -0.31644,-0.512 -0.11799,-1.21356 0.44098,-1.55902 0.55897,-0.34546 1.01631,-2.12196 1.01631,-3.94778 v -3.31966 l -2.75,-1.02758 c -1.5125,-0.56518 -3.65,-1.36441 -4.75,-1.77608 l -2,-0.7485 2,-0.38417 c 1.1,-0.2113 2.99681,-0.59629 4.21513,-0.85555 l 2.21513,-0.47136 0.28487,-10.2397 0.28487,-10.2397 3,0.32168 c 1.65,0.17693 4.125,0.85735 5.5,1.51205 l 2.5,1.19036 0.28505,14.48795 0.28505,14.48796 -2.14583,1.75 c -2.27078,1.85189 -9.39583,2.41406 -10.38156,0.8191 z m -18.83386,-0.69358 c -1.02196,-1.02196 -0.8744,-9.74079 0.43702,-25.82328 0.63023,-7.72873 1.21996,-14.15447 1.31052,-14.27943 0.30876,-0.42604 16.54361,4.80084 16.54361,5.32629 0,0.28789 -2.00438,0.22287 -4.45418,-0.1445 l -4.45417,-0.66794 -0.50904,2.35667 c -0.27997,1.29617 -0.9896,7.08167 -1.57695,12.85667 -0.58735,5.775 -1.39544,12.75 -1.79574,15.5 l -0.72783,5 -2.03219,0.29218 c -1.11771,0.1607 -2.35118,-0.0268 -2.74105,-0.41666 z m 249.2509,-28.37552 c -0.13264,-0.275 -0.34753,-7.925 -0.47753,-17 C 351.29506,123.80863 334.57499,83.804406 302.0174,51.302826 275.64667,24.977456 240.00611,8.114226 201.49125,3.739156 c -13.06252,-1.48383 -38.42649,-0.6911 -50.00504,1.56286 -24.57933,4.78478 -46.74809,14.16826 -67,28.35941 -9.50669,6.66164 -31.52356,29.1686 -39.03123,39.90007 -16.10682,23.02309 -26.0756,48.381964 -29.48407,75.002424 -0.58579,4.57503 -1.86841,7.21935 -2.95942,6.10126 -0.5428,-0.55629 2.27401,-18.6614 4.09958,-26.35014 2.47354,-10.41779 7.0468,-22.87991 12.11009,-33.000004 26.50339,-52.97276 75.33036,-87.70335 132.26505,-94.08002 43.0762,-4.82453 82.1435,4.47523 118,28.08924 36.58798,24.09575 62.44657,62.87498 72.00992,107.990784 2.44302,11.52511 3.78251,40.46772 2.1752,47 -0.54132,2.2 -1.09274,3.775 -1.22537,3.5 z m -9.99324,-5.33979 -2.46651,-1.2401 0.32542,-6.96006 c 0.6905,-14.7682 -4.30651,-42.74454 -10.36571,-58.03369 -14.74575,-37.207864 -41.727,-66.996674 -76.47724,-84.435164 -12.10406,-6.0741 -30.6607,-12.40662 -42.98247,-14.66792 l -9.5,-1.74345 -17.5,0.004 -17.5,0.004 -10,1.78367 c -19.91605,3.55237 -44.5027,13.48165 -60.97889,24.62624 -15.6604,10.59278 -32.59907,27.73819 -42.4844,43.00292 -9.78311,15.10689 -19.13617,37.675424 -22.93816,55.348824 l -1.73014,8.04248 -2.6842,0.71787 -2.68421,0.71786 v -3.34593 c 0,-4.66374 5.24897,-24.53842 8.92397,-33.78969 7.06629,-17.788374 16.1397,-32.821464 29.20279,-48.384024 12.90179,-15.37041 28.49545,-27.39452 48.37324,-37.30013 24.44568,-12.1819 41.77005,-16.68208 68,-17.66371 l 16,-0.59878 11.5,1.67103 c 48.42333,7.03624 88.75249,32.31112 114.31383,71.64216 14.48048,22.281024 22.2712,42.549754 25.73059,66.942044 0.98795,6.96609 1.57097,33.71795 0.75266,34.53625 -0.20023,0.20023 -1.47399,-0.19398 -2.83057,-0.87604 z m -73.96651,-28.58189 c -41.85303,-13.96548 -78.10563,-26.5293 -80.96448,-28.05931 l -2.03552,-1.08938 v -3.49693 c 0,-7.53223 -3.82396,-12.48844 -11.1672,-14.47374 l -3.66719,-0.99146 -4.46146,1.51471 -4.46145,1.5147 -4.37135,-1.553 c -10.81262,-3.84137 -20.78947,4.12389 -20.84939,16.64561 l -0.022,4.58952 -36.0193,1.30784 c -19.81062,0.71932 -36.24839,1.07876 -36.52839,0.79877 -0.27999,-0.28 0.67294,-3.83381 2.11764,-7.89737 11.0458,-31.069034 40.46741,-58.278964 74.93005,-69.297414 14.07509,-4.50011 23.7685,-5.92125 40.5,-5.93765 l 15.5,-0.0152 10.90131,2.23192 c 19.25084,3.9414 41.6941,13.73576 52.34243,22.8425 l 3.75626,3.21246 -3.97943,0.0375 c -4.44481,0.0419 -93.04325,-4.64995 -101.27057,-5.36296 -7.15415,-0.62001 -6.69546,0.96241 0.5,1.72495 35.29078,3.73993 67.33017,7.26793 88.75,9.77266 l 26,3.04031 3.01669,2.90133 c 1.65918,1.59573 3.84411,4.30204 4.8554,6.01401 l 1.8387,3.11267 -12.3554,-0.61915 c -6.79542,-0.34048 -25.18035,-1.28403 -40.85535,-2.09673 -15.675,-0.8127 -33.45,-1.68789 -39.5,-1.94488 l -11,-0.46724 3.5,0.96384 c 1.925,0.5301 25.04651,3.48024 51.38113,6.55584 26.33462,3.075614 49.71593,5.905244 51.95847,6.288074 l 4.07733,0.69605 2.8686,5.47942 2.8686,5.47941 -4.75452,0.31204 c -5.09716,0.33452 -56.08224,-2.44244 -63.14961,-3.43953 -2.40102,-0.33874 -4.25,-0.19223 -4.25,0.33677 0,0.515 6.4125,1.71463 14.25,2.66584 17.28552,2.09788 55.21205,7.45176 58.32829,8.23389 2.47623,0.62149 3.60914,2.89185 5.93362,11.89099 1.80506,6.98823 3.23558,28.5186 1.89106,28.46196 -0.49663,-0.0209 -16.87797,-5.36856 -36.40297,-11.88364 z"
     id="path1"
     sodipodi:insensitive="true" />
  <path
     style="display:inline;fill:#000000"
     d="m 122.23811,335.7293 c -3.16146,-0.46303 -6.6443,-1.32149 -7.73965,-1.90771 -5.57336,-2.98276 -6.65821,-14.90251 -2.51225,-27.6033 1.375,-4.2122 2.5,-8.42094 2.5,-9.35276 0,-4.01943 3.50824,-11.39947 7.5626,-15.90889 7.01849,-7.80626 17.48422,-11.11784 35.1874,-11.13405 l 8.25,-0.008 v 8 8 h -5.5 c -5.55363,0 -6.49016,0.60984 -4.3,2.8 l 1.2,1.2 36.55,-0.004 36.55,-0.004 4.5,-2.992 4.5,-2.99144 4.60212,-0.004 c 8.27653,-0.008 14.89788,6.89437 14.89788,15.52984 0,4.35981 1.34868,6.4656 4.14098,6.4656 2.71187,0 3.05012,-1.3974 2.94048,-12.14794 l -0.10241,-10.04143 23.76047,0.59445 c 13.06827,0.32695 40.31734,0.87238 60.55349,1.21207 l 36.79302,0.61763 -0.29302,6.63261 -0.29301,6.63261 -7,0.5 -7,0.5 -0.31071,3.75571 -0.3107,3.75571 -2.98226,1.54219 c -1.64024,0.8482 -3.40178,2.64563 -3.91454,3.99429 -0.51276,1.34865 -1.50593,2.47357 -2.20704,2.4998 -0.70111,0.0262 -6.99204,0.15603 -13.97984,0.28843 -6.9878,0.1324 -13.0253,0.56093 -13.41667,0.9523 -1.29747,1.29746 -10.52285,0.73678 -13.84926,-0.8417 -2.09651,-0.99486 -3.9131,-2.97215 -5.053,-5.5 -2.0062,-4.44896 -3.38687,-4.92032 -5.32445,-1.81776 l -1.32957,2.12898 -6.16098,-0.61925 c -4.18404,-0.42055 -7.72128,-0.14553 -11.02356,0.85707 l -4.86258,1.47633 -4.38085,-1.10311 -4.38085,-1.10311 -3.25657,1.53939 -3.25657,1.53938 -7.57541,-1.09631 c -9.18527,-1.32929 -10.92459,-0.81659 -10.92459,3.22028 v 3.03138 h -1.83102 c -1.00706,0 -2.46956,1.19459 -3.25,2.65463 -3.19114,5.97 -14.5687,6.93555 -33.49754,2.84275 -1.14321,-0.24718 -2.55165,-1.48774 -3.12987,-2.7568 l -1.05131,-2.30736 -10.87013,0.79561 c -5.97857,0.43759 -17.82585,1.12761 -26.32728,1.53339 l -15.45716,0.73778 -0.5843,2.5 -0.58431,2.5 -5.16785,0.52392 -5.16785,0.52393 -2.79069,2.67303 c -5.582,5.34665 -10.20306,6.35359 -21.53879,4.69338 z m 15.9981,-9.19194 c 1.51379,-1.17132 1.68493,-3.10916 0.19316,-2.18719 -0.58125,0.35923 -2.14807,0.37927 -3.48181,0.0445 -4.26333,-1.07003 -7.00978,-9.20258 -5.45096,-16.14093 1.07101,-4.76707 5.27601,-8.79999 8.20588,-7.87009 l 2.02036,0.64124 -0.45003,-1.35494 c -0.24752,-0.74522 -1.68139,-1.79008 -3.18639,-2.32192 l -2.73636,-0.96698 -2.58476,1.46698 c -1.42163,0.80684 -3.52849,2.7391 -4.68193,4.29391 l -2.09716,2.82695 v 7.17308 7.17307 l 2.28786,3.67929 c 3.19399,5.13652 8.04562,6.57351 11.96214,3.54303 z m 5.91562,-9.46447 c 3.83999,-9.19038 -3.9611,-18.78285 -9.5239,-11.71089 -4.18207,5.31665 -3.32117,12.11266 2.00717,15.84478 l 2.16032,1.51314 1.93005,-1.03293 c 1.06153,-0.56811 2.60339,-2.64446 3.42636,-4.6141 z m 100.34534,-1.50785 c 1.3187,-2.16282 1.98281,-5.03195 1.9853,-8.57692 l 0.004,-5.32693 -2.93243,-2.93242 -2.93242,-2.93243 -2.54166,1.15806 c -5.6376,2.56866 -7.14386,14.51699 -2.45878,19.50404 3.17541,3.38006 6.47304,3.04816 8.87625,-0.8934 z m 92.76449,-11.05582 c 0.50622,-6.10427 -0.89189,-9.69418 -3.77545,-9.69418 -2.90154,0 -4.28181,3.58814 -3.76724,9.79327 0.31826,3.83777 1.02024,5.91856 2.31645,6.86637 l 1.8598,1.35992 1.45901,-1.45901 c 0.80246,-0.80246 1.6608,-3.89232 1.90743,-6.86637 z m 13.66785,4.08331 c 2.79299,-3.98756 1.47096,-12.77749 -1.92178,-12.77749 -2.09569,0 -4.52152,4.02381 -4.52152,7.5 0,3.07932 2.3577,7.5 4,7.5 0.48763,0 1.58711,-1.00013 2.4433,-2.22251 z m 13.35008,-7.27749 -0.29338,-5 h -1.99553 -1.99552 l -0.88997,4.21875 -0.88996,4.21874 1.77214,2.70462 1.77213,2.70462 1.40673,-1.92336 c 0.88366,-1.20819 1.29764,-3.78255 1.11336,-6.92337 z m -40.98301,-5.75 0.31036,-3.75 -1.81036,-0.0765 c -0.99571,-0.0421 -2.48537,-0.20555 -3.31037,-0.36326 -0.825,-0.15771 -11.69545,-0.61023 -24.15655,-1.00559 l -22.65656,-0.71884 -0.66796,2.10457 c -0.36739,1.15751 -0.37203,3.45198 -0.0103,5.09882 l 0.65764,2.99424 25.66688,-0.26672 25.66685,-0.26672 z M 46.48621,325.11458 c -5.04224,-1.82381 -8.2948,-3.9048 -10.12879,-6.4804 -1.14916,-1.61386 -1.88512,-3.13856 -1.63545,-3.38823 0.88509,-0.8851 16.29868,1.73465 18.47906,3.14076 3.33588,2.1513 4.5364,1.74137 2.77463,-0.94743 l -1.55666,-2.37576 -9.7164,-1.19599 c -5.34401,-0.65779 -13.04043,-1.61773 -17.10314,-2.13319 l -7.38674,-0.93721 -1.35417,1.12386 c -1.57562,1.30765 -8.32954,0.47704 -12.87234,-1.58305 l -3,-1.36046 2.5,-0.0965 c 5.98289,-0.23102 6.56521,-3.69256 0.93963,-5.58554 -6.20872,-2.08921 -4.67734,-7.03983 1.81037,-5.85255 l 3.25,0.59476 v -4.17703 c 0,-4.52815 -1.00938,-6.9975 -4.64857,-11.37228 l -2.35143,-2.82675 v -5.60882 -5.60883 L 2.2431,266.05626 0,263.66859 l 0.26582,-9.67678 0.26582,-9.67677 1.6191,-1.21394 c 0.8905,-0.66766 1.95286,-1.34266 2.36079,-1.5 0.40793,-0.15733 1.05302,-3.88606 1.43353,-8.28606 0.69044,-7.98389 2.24937,-16.76904 6.83184,-38.5 l 2.42504,-11.5 -0.46989,-6.67988 -0.4699,-6.67987 5.77905,-6.02736 c 6.08702,-6.34855 6.66669,-6.60406 18.22423,-8.03299 l 7.27923,-0.89998 3.88169,-3.50687 3.88169,-3.50688 5.33908,-0.55792 c 2.9365,-0.30687 12.53909,-0.79836 21.33909,-1.09221 31.6188,-1.05582 68.04299,-2.66621 70.25,-3.10589 l 2.25,-0.44825 v -7.85851 -7.8585 l 1.5,-1.24489 1.5,-1.24489 1.48978,1.23641 1.48979,1.23641 0.26021,44.63604 0.26022,44.63603 2.25375,0.98874 c 4.15135,1.82124 1.65519,3.00889 -6.93155,3.29796 l -8.51639,0.28671 -1.17957,-1.4213 c -0.82156,-0.98992 -1.0956,-6.08494 -0.90291,-16.78671 l 0.27667,-15.3654 4.25,0.18933 4.25,0.18933 v -20.0685 -20.06849 l -6.25,0.70503 c -8.13948,0.91818 -16.53778,3.77655 -25.37311,8.63576 l -7.12311,3.91754 h -12.2265 c -11.37891,0 -19.62438,0.39503 -63.02728,3.01953 l -16.5,0.99773 -1.75,2.10215 c -1.02159,1.22716 -1.75,3.75922 -1.75,6.08321 v 3.98106 l 35.25,-0.78548 c 19.3875,-0.43201 37.05,-0.81084 39.25,-0.84184 l 4,-0.0564 0.30861,4.27272 c 0.42761,5.92032 -2.54781,34.87146 -3.83013,37.26749 -3.07861,5.75247 -12.00765,6.95983 -51.47125,6.95983 H 11.6454 l -0.69402,6.48063 c -0.38171,3.56434 -0.46125,7.08721 -0.17675,7.82859 l 0.51726,1.34796 18.33425,1.21539 c 10.08383,0.66847 24.07756,1.49012 31.09716,1.82588 7.93928,0.37976 12.76291,1.01109 12.76291,1.67045 0,2.22822 -5.18318,28.30754 -5.82505,29.30888 -0.71369,1.11339 -48.0102,-1.82044 -51.42495,-3.18992 -0.9625,-0.38601 -1.75663,-1.44119 -1.76474,-2.34485 -0.008,-0.90365 -0.29266,-6.64215 -0.63233,-12.75221 -0.34098,-6.1335 -0.22096,-11.35433 0.26797,-11.6565 0.48706,-0.30102 7.40911,-0.16442 15.38233,0.30357 7.97322,0.46798 20.34677,1.07674 27.49677,1.35279 l 13,0.50193 -6,-0.84955 c -3.3,-0.46725 -16.27003,-1.4295 -28.8223,-2.13833 l -22.8223,-1.28878 -0.91239,1.44203 c -1.04478,1.6513 -1.23846,20.83731 -0.29005,28.73407 0.44288,3.68758 1.19846,5.59327 2.49217,6.28564 2.61016,1.39692 52.77232,5.05487 64.5735,4.70887 l 9.77308,-0.28654 4.03526,-7.52976 c 5.47458,-10.21549 8.68408,-14.20765 15.60459,-19.40989 5.68537,-4.27377 20.92066,-11.04294 23.16811,-10.29379 0.60635,0.20211 -2.70052,2.21695 -7.3486,4.4774 -4.64809,2.26046 -11.02643,6.41797 -14.17409,9.23892 l -5.72302,5.129 -3.50583,7.19406 c -1.92821,3.95673 -3.92097,9.89406 -4.42835,13.19406 -1.09283,7.10773 -0.36146,18.69386 1.24575,19.73469 0.62396,0.40408 3.77822,0.74158 7.00947,0.75 l 5.875,0.0153 -0.68565,3.25 c -0.37711,1.7875 -1.13447,5.93861 -1.68303,9.22469 -0.54855,3.28608 -1.17383,6.15115 -1.3895,6.36683 -0.21568,0.21567 -9.48685,-0.0995 -20.60261,-0.70043 l -20.21048,-1.09257 -4.46648,1.97574 c -4.22558,1.86918 -10.91167,2.46913 -14.21225,1.27528 z m 36.85493,-9.7259 c 2.65188,-2.65187 0.22369,-3.57364 -9.41395,-3.57364 h -9.44098 v 2.4501 2.45009 l 5.75,0.39389 c 7.45348,0.51059 11.3908,-0.006 13.10493,-1.72044 z m 1.78772,-15.10152 5.14266,-2.51418 0.65585,-3.49598 c 0.84356,-4.49658 0.36582,-5.14983 -4.34881,-5.94636 -5.41924,-0.91557 -17.55528,2.7351 -19.6328,5.90579 -1.96589,3.00032 -3.46776,8.22891 -2.61816,9.11478 1.46113,1.5235 15.71113,-0.57554 20.80126,-3.06405 z M 4.8441,245.50999 c -0.29018,-0.99277 -1.05192,-1.63137 -1.69275,-1.41911 -1.71269,0.56731 -2.10084,18.0779 -0.46483,20.96989 l 1.27524,2.25427 0.70498,-10 c 0.38774,-5.5 0.46755,-10.81227 0.17736,-11.80505 z m 162.41698,-29.45081 0.51488,-69.75586 -2.1827,-4.27844 c -2.21963,-4.35084 -2.09927,-6.20984 0.40206,-6.20984 h 1.39108 l 0.29991,-5.75 0.2999,-5.75 2.25,-0.31955 2.25,-0.31955 v 7.01888 7.01889 l 36.25,11.97263 c 19.9375,6.58494 54.925,18.33396 77.75,26.10893 22.825,7.77498 47.8,16.16639 55.5,18.6476 7.7,2.48121 23.5625,7.65804 35.25,11.50407 l 21.25,6.99278 v 36.08304 36.08303 l -41.25,-0.75632 c -22.6875,-0.41597 -71.85,-1.07731 -109.25,-1.46965 l -68,-0.71332 -2.06445,1.82427 c -1.35416,1.19661 -3.63183,1.82427 -6.62,1.82427 h -4.55555 z m 138.48535,57.21539 c 1.50688,-1.39726 2.73978,-2.97226 2.73978,-3.5 0,-2.24577 1.78564,-0.69817 2.64277,2.29047 l 0.93208,3.25 h 2.46258 2.46257 v -23.94398 -23.94398 l -7.37128,-1.3514 c -4.05421,-0.74328 -7.51918,-1.20351 -7.69995,-1.02274 -0.18076,0.18076 -0.64091,3.37639 -1.02255,7.10139 l -0.69389,6.77272 2.1797,0.57 2.17969,0.57001 -0.28586,9.01808 -0.28586,9.01809 -1.66618,1.04791 -1.66617,1.04792 -1.58383,-1.31445 -1.58382,-1.31446 v -25.29577 c 0,-13.91267 0.27314,-26.00757 0.60699,-26.87755 0.84265,-2.19591 4.10897,-1.98103 5.35783,0.35247 0.56935,1.06384 1.03518,4.37996 1.03518,7.36916 v 5.4349 l 3.25,0.56636 c 1.7875,0.3115 4.65105,0.86434 6.36346,1.22853 l 3.11345,0.66217 -0.42762,-7.15383 c -0.77581,-12.97873 -5.00819,-20.60052 -13.68226,-24.63939 -8.70386,-4.05274 -14.28889,-2.5534 -18.38701,4.93614 l -1.73002,3.1617 v 32 32 l 2.70585,5.5 c 3.20476,6.51408 6.66231,8.93715 12.80437,8.97339 l 4.51022,0.0266 z m 32.73978,-27.53899 v -30.07945 l 3,0.65891 3,0.65891 v -7.11084 c 0,-4.81527 -0.40353,-7.23598 -1.25,-7.49847 -0.6875,-0.21319 -6.0498,-1.93305 -11.91623,-3.8219 l -10.66623,-3.43428 -0.42718,3.10329 c -0.23494,1.70681 -0.38514,5.11682 -0.33377,7.5778 l 0.0934,4.47452 3,0.98535 c 1.65,0.54195 3.17948,1.1079 3.39884,1.25766 0.66663,0.45514 0.78194,4.67342 0.94464,34.55796 l 0.15653,28.75 h 5.5 5.5 z m -62.51519,-17.47372 c 0.40819,-25.60425 0.49,-46.80535 0.18179,-47.11356 -0.78335,-0.78334 -13.89823,-5.32359 -15.39299,-5.3289 l -1.22638,-0.004 -0.27362,17.25 -0.27361,17.25 -2.93334,-0.21337 c -1.61334,-0.11735 -3.52584,-0.44073 -4.25,-0.71861 l -1.31666,-0.50525 v -18.29698 -18.29698 l -8.75,-2.84005 c -4.8125,-1.56203 -9.2572,-3.03658 -9.87712,-3.27678 -1.46218,-0.56655 -2.19102,15.20746 -2.89465,62.64802 -0.29776,20.075 -0.77974,38.4125 -1.07107,40.75 l -0.52971,4.25 h 10.4076 10.4076 l 0.65367,-12.157 c 0.35953,-6.68635 0.65368,-17.0926 0.65368,-23.125 v -10.968 l 3.125,0.625 c 1.71875,0.34375 3.81539,0.625 4.65921,0.625 h 1.53421 l -0.62866,22.36389 c -0.34576,12.30013 -0.3424,22.65013 0.007,23 0.34986,0.34986 4.32821,0.63611 8.84076,0.63611 h 8.20466 z M 79.48621,269.28448 c 0,-0.33051 0.43709,-1.41764 0.97131,-2.41584 0.53423,-0.9982 1.03777,-5.7163 1.119,-10.48467 l 0.14768,-8.66975 1.631,0.31102 1.63101,0.31101 0.29035,7.06816 c 0.32697,7.95946 -0.74087,11.7786 -3.74248,13.38501 -1.12633,0.60279 -2.04787,0.82557 -2.04787,0.49506 z m 33.5,-24.98711 c 3.45679,-2.90533 10.44189,-5.46196 19.00074,-6.9545 8.03273,-1.40079 15.49926,-1.12542 15.49926,0.57163 0,0.46077 -0.64259,0.59118 -1.42798,0.2898 -3.22707,-1.23834 -19.33353,2.20291 -33.07202,7.06605 l -2,0.70796 z m 9.04271,-27.41323 c -0.31644,-0.512 -0.11799,-1.21356 0.44098,-1.55902 0.55897,-0.34546 1.01631,-2.12196 1.01631,-3.94778 v -3.31966 l -2.75,-1.02758 c -1.5125,-0.56518 -3.65,-1.36441 -4.75,-1.77608 l -2,-0.7485 2,-0.38417 c 1.1,-0.2113 2.99681,-0.59629 4.21513,-0.85555 l 2.21513,-0.47136 0.28487,-10.2397 0.28487,-10.2397 3,0.32168 c 1.65,0.17693 4.125,0.85735 5.5,1.51205 l 2.5,1.19036 0.28505,14.48795 0.28505,14.48796 -2.14583,1.75 c -2.27078,1.85189 -9.39583,2.41406 -10.38156,0.8191 z m -18.83386,-0.69358 c -1.02196,-1.02196 -0.8744,-9.74079 0.43702,-25.82328 0.63023,-7.72873 1.21996,-14.15447 1.31052,-14.27943 0.30876,-0.42604 16.54361,4.80084 16.54361,5.32629 0,0.28789 -2.00438,0.22287 -4.45418,-0.1445 l -4.45417,-0.66794 -0.50904,2.35667 c -0.27997,1.29617 -0.9896,7.08167 -1.57695,12.85667 -0.58735,5.775 -1.39544,12.75 -1.79574,15.5 l -0.72783,5 -2.03219,0.29218 c -1.11771,0.1607 -2.35118,-0.0268 -2.74105,-0.41666 z m 249.2509,-28.37552 c -0.13264,-0.275 -0.34753,-7.925 -0.47753,-17 C 351.29506,123.80863 334.57499,83.804406 302.0174,51.302826 275.64667,24.977456 240.00611,8.114226 201.49125,3.739156 c -13.06252,-1.48383 -38.42649,-0.6911 -50.00504,1.56286 -24.57933,4.78478 -46.74809,14.16826 -67,28.35941 -9.50669,6.66164 -31.52356,29.1686 -39.03123,39.90007 -16.10682,23.02309 -26.0756,48.381964 -29.48407,75.002424 -0.58579,4.57503 -1.86841,7.21935 -2.95942,6.10126 -0.5428,-0.55629 2.27401,-18.6614 4.09958,-26.35014 2.47354,-10.41779 7.0468,-22.87991 12.11009,-33.000004 26.50339,-52.97276 75.33036,-87.70335 132.26505,-94.08002 43.0762,-4.82453 82.1435,4.47523 118,28.08924 36.58798,24.09575 62.44657,62.87498 72.00992,107.990784 2.44302,11.52511 3.78251,40.46772 2.1752,47 -0.54132,2.2 -1.09274,3.775 -1.22537,3.5 z m -9.99324,-5.33979 -2.46651,-1.2401 0.32542,-6.96006 c 0.6905,-14.7682 -4.30651,-42.74454 -10.36571,-58.03369 -14.74575,-37.207864 -41.727,-66.996674 -76.47724,-84.435164 -12.10406,-6.0741 -30.6607,-12.40662 -42.98247,-14.66792 l -9.5,-1.74345 -17.5,0.004 -17.5,0.004 -10,1.78367 c -19.91605,3.55237 -44.5027,13.48165 -60.97889,24.62624 -15.6604,10.59278 -32.59907,27.73819 -42.4844,43.00292 -9.78311,15.10689 -19.13617,37.675424 -22.93816,55.348824 l -1.73014,8.04248 -2.6842,0.71787 -2.68421,0.71786 v -3.34593 c 0,-4.66374 5.24897,-24.53842 8.92397,-33.78969 7.06629,-17.788374 16.1397,-32.821464 29.20279,-48.384024 12.90179,-15.37041 28.49545,-27.39452 48.37324,-37.30013 24.44568,-12.1819 41.77005,-16.68208 68,-17.66371 l 16,-0.59878 11.5,1.67103 c 48.42333,7.03624 88.75249,32.31112 114.31383,71.64216 14.48048,22.281024 22.2712,42.549754 25.73059,66.942044 0.98795,6.96609 1.57097,33.71795 0.75266,34.53625 -0.20023,0.20023 -1.47399,-0.19398 -2.83057,-0.87604 z m -73.96651,-28.58189 c -41.85303,-13.96548 -78.10563,-26.5293 -80.96448,-28.05931 l -2.03552,-1.08938 v -3.49693 c 0,-7.53223 -3.82396,-12.48844 -11.1672,-14.47374 l -3.66719,-0.99146 -4.46146,1.51471 -4.46145,1.5147 -4.37135,-1.553 c -10.81262,-3.84137 -20.78947,4.12389 -20.84939,16.64561 l -0.022,4.58952 -36.0193,1.30784 c -19.81062,0.71932 -36.24839,1.07876 -36.52839,0.79877 -0.27999,-0.28 0.67294,-3.83381 2.11764,-7.89737 11.0458,-31.069034 40.46741,-58.278964 74.93005,-69.297414 14.07509,-4.50011 23.7685,-5.92125 40.5,-5.93765 l 15.5,-0.0152 10.90131,2.23192 c 19.25084,3.9414 41.6941,13.73576 52.34243,22.8425 l 3.75626,3.21246 -3.97943,0.0375 c -4.44481,0.0419 -93.04325,-4.64995 -101.27057,-5.36296 -7.15415,-0.62001 -6.69546,0.96241 0.5,1.72495 35.29078,3.73993 67.33017,7.26793 88.75,9.77266 l 26,3.04031 3.01669,2.90133 c 1.65918,1.59573 3.84411,4.30204 4.8554,6.01401 l 1.8387,3.11267 -12.3554,-0.61915 c -6.79542,-0.34048 -25.18035,-1.28403 -40.85535,-2.09673 -15.675,-0.8127 -33.45,-1.68789 -39.5,-1.94488 l -11,-0.46724 3.5,0.96384 c 1.925,0.5301 25.04651,3.48024 51.38113,6.55584 26.33462,3.075614 49.71593,5.905244 51.95847,6.288074 l 4.07733,0.69605 2.8686,5.47942 2.8686,5.47941 -4.75452,0.31204 c -5.09716,0.33452 -56.08224,-2.44244 -63.14961,-3.43953 -2.40102,-0.33874 -4.25,-0.19223 -4.25,0.33677 0,0.515 6.4125,1.71463 14.25,2.66584 17.28552,2.09788 55.21205,7.45176 58.32829,8.23389 2.47623,0.62149 3.60914,2.89185 5.93362,11.89099 1.80506,6.98823 3.23558,28.5186 1.89106,28.46196 -0.49663,-0.0209 -16.87797,-5.36856 -36.40297,-11.88364 z"
     id="path2"
     sodipodi:nodetypes="sssssscccssccccccssscsscccccccsssssssscsscccccsscsssscsscccccssssssscsscsscccssssscsscccccssccsssscsssssssscccccccssccssscssccccssssscsscsscssscsscccccccsssscccsscccssscccccccccsscsscccccsscsscsscsscssscsscssssscsssscsscsssscssssscsssscsssscssscscccscscsssssssscssccsscccccccsssscccsscssccssscccccssscccccccccsssscsscssscccsscsccccssscsscssscccccsscccsscccsssscccsscsscscsccssscccsssssssscsssscsscsscccsscccssssssscssscssssssssssssssssssccsssscccsssscccssssscssssccsscsscccsscssssscsscsssscssccsscssscccssssssss" />
</svg>
