<svg xmlns="http://www.w3.org/2000/svg" width="260" height="164" fill="none"><path fill="#FDF36D" fill-rule="evenodd" d="M17.171 3a3 3 0 0 1 3-3H130c15.061 0 27.284 12.181 27.284 27.223v43.845L220.539 7.97a3 3 0 0 1 4.237 0l34.343 34.256a3 3 0 0 1 0 4.248l-63.237 63.079h43.947a3 3 0 0 1 3 3V161a3 3 0 0 1-3 3H130c-15.061 0-27.284-12.181-27.284-27.223V92.932L39.461 156.03a3 3 0 0 1-4.237 0L.88 121.773a3 3 0 0 1 0-4.248l63.237-63.079H20.171a3 3 0 0 1-3-3V3Zm6 3v42.446h48.203a3 3 0 0 1 2.119 5.124L7.248 119.649l30.094 30.019 66.256-66.09a3 3 0 0 1 5.118 2.124v51.075c0 11.714 9.522 21.223 21.284 21.223h106.829v-42.446h-48.203a3 3 0 0 1-2.118-5.124l66.244-66.079-30.094-30.019-66.256 66.09a3 3 0 0 1-5.118-2.124V27.222C151.284 15.509 141.762 6 130 6H23.171Z" clip-rule="evenodd"/></svg>