<svg xmlns="http://www.w3.org/2000/svg" width="50" height="50" fill="none"><path fill="#1E1E1E" d="M6.25 17.969V43.75h37.5V17.969a2.21 2.21 0 0 0-1.11-1.922L26.11 6.523a2.211 2.211 0 0 0-2.22 0l-16.523 9.54a2.211 2.211 0 0 0-1.117 1.906Z"/><path fill="#1E1E1E" d="M43.734 41.54H6.258v2.21h37.476v-2.21Z"/><path fill="#EBEEF2" d="M13.414 22.07h23.172a.86.86 0 0 1 .86.86v20.82h-24.9V22.93a.86.86 0 0 1 .868-.86Z"/><path fill="#DCDFE2" d="M36.586 22.07H13.414a.867.867 0 0 0-.867.86v20.82h24.906V22.93a.867.867 0 0 0-.867-.86Zm-1.477 19.336H14.891V24.414h20.218v16.992Z"/><path fill="#1E1E1E" d="M24.82 36.516h-7.617c-.1 0-.18.08-.18.18v6.874c0 .1.08.18.18.18h7.617c.1 0 .18-.08.18-.18v-6.875a.18.18 0 0 0-.18-.18Z"/><path fill="#fff" d="M19.867 36.516h2.297v1.672a.39.39 0 0 1-.39.39H20.25a.39.39 0 0 1-.39-.39v-1.672h.007Z"/><path fill="#1E1E1E" d="M32.797 36.516H25.18c-.1 0-.18.08-.18.18v6.874c0 .1.08.18.18.18h7.617c.1 0 .18-.08.18-.18v-6.875a.18.18 0 0 0-.18-.18Z"/><path fill="#fff" d="M27.844 36.516h2.297v1.672a.39.39 0 0 1-.391.39h-1.516a.39.39 0 0 1-.39-.39v-1.672Z"/><path fill="#1E1E1E" d="M28.805 29.297h-7.617c-.1 0-.18.08-.18.18v6.875c0 .099.08.18.18.18h7.617a.18.18 0 0 0 .18-.18v-6.875a.18.18 0 0 0-.18-.18Z"/><path fill="#fff" d="M23.852 29.297h2.296v1.672a.39.39 0 0 1-.39.39h-1.54a.391.391 0 0 1-.39-.39v-1.672h.024Z"/></svg>